# xmcd
#
# Track frame offsets:
#	150
#	19077
#	30401
#	42617
#	56764
#	80734
#	93012
#	104728
#	118961
#	130405
#	143157
#	158620
#	173245
#	186606
#
# Disc length: 2654 seconds
#
# Revision: 1
# Processed by: cddbd v1.5.2PL0 Copyright (c) Steve Scherf et al.
# Submitted via: audiograbber 1.83.01
#
DISCID=c80a5c0e
DTITLE=Verschiedene Interpreten - Stand By Your Man
DYEAR=2010
DGENRE=Country
TTITLE0=Alabama - I Want To Be With You Tonight
TTITLE1=Patsy Cline - The Heart You Break May Be Your Own
TTITLE2=Lynn Anderson - Stand By Your Man
TTITLE3=T. Graham Brown - Today I Started Loving You Again
TTITLE4=Restless Heart - The Bluest Eyes In Texas - Live
TTITLE5=Lacy J. Dalton - Dream Baby
TTITLE6=Donna Fargo - The Happiest Girl In The Whole USA
TTITLE7=Mickey Gilley - I´ll Make It All Up To You
TTITLE8=Freddy Fender - Before The Next Teardrop Falls - Live
TTITLE9=Janie Fricke - Do Me With Love
TTITLE10=Exile - Crazy For You Love
TTITLE11=Holly Dunn - Love Someone Like Me
TTITLE12=Mickey Gilley - True Love Always
TTITLE13=Lynn Anderson - I Fall To Pieces
EXTD=
EXTT0=
EXTT1=
EXTT2=
EXTT3=
EXTT4=
EXTT5=
EXTT6=
EXTT7=
EXTT8=
EXTT9=
EXTT10=
EXTT11=
EXTT12=
EXTT13=
PLAYORDER=
